<svg xmlns="http://www.w3.org/2000/svg" width="233" height="110" viewBox="0 0 233 110">
  <g id="logo" transform="translate(-140.672 -110)">
    <g id="Group_5" data-name="Group 5" transform="translate(178.361 110) rotate(45)">
      <g id="Subtraction_1" data-name="Subtraction 1" fill="none">
        <path d="M13.609,36.8h0a18.634,18.634,0,0,1-5.44-2.557A18.76,18.76,0,1,1,34.551,8.631a18.62,18.62,0,0,1,2.444,5.714H13.609Z" stroke="none"/>
        <path d="M 11.60908031463623 33.92044067382812 L 11.60908031463623 12.34473896026611 L 34.24702835083008 12.34473896026611 C 33.86836242675781 11.43129348754883 33.40789031982422 10.5515079498291 32.86857223510742 9.712288856506348 C 31.8743896484375 8.16498851776123 30.64019012451172 6.798069000244141 29.2002010345459 5.649458885192871 C 27.74772071838379 4.490818977355957 26.12821006774902 3.588598966598511 24.38661003112793 2.967859029769897 C 22.58485984802246 2.325639009475708 20.6912899017334 1.999998927116394 18.75850105285645 1.999998927116394 C 16.49518966674805 1.999998927116394 14.30069065093994 2.442798852920532 12.23596000671387 3.316098928451538 C 10.24068069458008 4.160018920898438 8.448230743408203 5.368628978729248 6.908440589904785 6.908288955688477 C 5.368730545043945 8.447978973388672 4.160070419311523 10.2404088973999 3.316040277481079 12.23576927185059 C 2.442780494689941 14.30027866363525 2.000000476837158 16.49474906921387 2.000000476837158 18.75820922851562 C 2.000000476837158 20.63343811035156 2.306890487670898 22.47359848022461 2.912120342254639 24.22747802734375 C 3.497530460357666 25.92364883422852 4.35006046295166 27.50898933410645 5.446140289306641 28.93957901000977 C 6.53130054473877 30.35614967346191 7.827540397644043 31.58557891845703 9.298920631408691 32.59378051757812 C 10.03595066070557 33.09885025024414 10.8078670501709 33.54194641113281 11.60908031463623 33.92044067382812 M 13.60908031463623 36.80109786987305 L 13.60843086242676 36.80060958862305 C 11.66872024536133 36.24835968017578 9.838260650634766 35.38792037963867 8.168360710144043 34.24357986450195 C 6.522560596466064 33.11586761474609 5.072460174560547 31.7405891418457 3.858450412750244 30.15581893920898 C 2.631420373916626 28.5543098449707 1.67706036567688 26.77925872802734 1.021550416946411 24.87998962402344 C 0.3436403870582581 22.91546821594238 3.924560587620363e-07 20.85579872131348 3.924560587620363e-07 18.75820922851562 C 3.924560587620363e-07 16.22577857971191 0.4958703815937042 13.76917934417725 1.474050402641296 11.45662879943848 C 2.418910503387451 9.222888946533203 3.771470308303833 7.216808795928955 5.494230270385742 5.49406909942627 C 7.217000484466553 3.771438837051392 9.22312068939209 2.418869018554688 11.45686054229736 1.474088907241821 C 13.76951026916504 0.495928943157196 16.22616958618164 -1.065063429450674e-06 18.75850105285645 -1.065063429450674e-06 C 20.92061996459961 -1.065063429450674e-06 23.0401611328125 0.3646689355373383 25.05812072753906 1.083958983421326 C 27.00851058959961 1.779118895530701 28.8216495513916 2.789108991622925 30.44740104675293 4.085968971252441 C 32.05818176269531 5.370819091796875 33.43886947631836 6.90001916885376 34.55118179321289 8.631158828735352 C 35.68328094482422 10.39278888702393 36.50547027587891 12.31514930725098 36.99496078491211 14.34473896026611 L 13.60908031463623 14.34473896026611 L 13.60908031463623 36.80109786987305 Z" stroke="none" fill="#000"/>
      </g>
      <g id="Intersection_1" data-name="Intersection 1" transform="translate(16.001 16.534)" fill="none">
        <path d="M0,22.227V0H23.477A18.367,18.367,0,0,1,24,4.368,18.7,18.7,0,0,1,5.17,22.935,19.1,19.1,0,0,1,0,22.227Z" stroke="none"/>
        <path d="M 5.169602394104004 20.93480491638184 C 9.670912742614746 20.93480491638184 13.90135288238525 19.2080249786377 17.08163261413574 16.07256507873535 C 20.25428199768066 12.94463443756104 22.00154304504395 8.787964820861816 22.00154304504395 4.3682541847229 C 22.00154304504395 3.573715925216675 21.94433212280273 2.781581163406372 21.83089256286621 2.000004291534424 L 2.000002384185791 2.000004291534424 L 2.000002384185791 20.6417407989502 C 3.03980278968811 20.83648300170898 4.100927352905273 20.93480491638184 5.169602394104004 20.93480491638184 M 5.169602394104004 22.93480491638184 C 3.376912593841553 22.93480491638184 1.642682433128357 22.6878547668457 2.476196186762536e-06 22.22652435302734 L 2.476196186762536e-06 4.365539552964037e-06 L 23.4774227142334 4.365539552964037e-06 C 23.82002258300781 1.400804400444031 24.00154304504395 2.86372447013855 24.00154304504395 4.3682541847229 C 24.00154304504395 14.62226390838623 15.57014274597168 22.93480491638184 5.169602394104004 22.93480491638184 Z" stroke="none" fill="#000"/>
      </g>
      <g id="Subtraction_2" data-name="Subtraction 2" transform="matrix(0.695, 0.719, -0.719, 0.695, 41.401, 16.534)" fill="none">
        <path d="M17.012,35.31H0a20.22,20.22,0,0,0,7.346-7.489,21.37,21.37,0,0,0,2.072-5.069,22.047,22.047,0,0,0,.735-5.665,22.1,22.1,0,0,0-.6-5.131,21.469,21.469,0,0,0-1.7-4.663A20.913,20.913,0,0,0,5.193,3.255,20.1,20.1,0,0,0,1.729,0H17.012V35.31Z" stroke="none"/>
        <path d="M 15.01203632354736 33.30998229980469 L 15.01203632354736 2.000002384185791 L 6.750651359558105 2.000002384185791 C 7.872196674346924 3.340077638626099 8.843069076538086 4.817934989929199 9.636837005615234 6.393432140350342 C 10.4495267868042 8.006882667541504 11.07595634460449 9.722012519836426 11.4987268447876 11.49123191833496 C 11.93346691131592 13.31079196929932 12.15390682220459 15.19338226318359 12.15390682220459 17.08671188354492 C 12.15390682220459 19.18487167358398 11.88384628295898 21.26398277282715 11.35116672515869 23.26657295227051 C 10.83377647399902 25.21053314208984 10.07118701934814 27.07558250427246 9.08454704284668 28.80997276306152 C 8.14680004119873 30.45831489562988 7.017904758453369 31.96958541870117 5.731043815612793 33.30998229980469 L 15.01203632354736 33.30998229980469 M 17.01203727722168 35.31034088134766 L 17.01203727722168 35.30998229980469 L -3.268737827966106e-06 35.30998229980469 C 3.020896673202515 33.54816055297852 5.561166763305664 30.95863151550293 7.346176624298096 27.82100296020508 C 8.248056411743164 26.2356128692627 8.945237159729004 24.5301628112793 9.41844654083252 22.75218200683594 C 9.906497001647949 20.91739273071289 10.15390682220459 19.01134300231934 10.15390682220459 17.08671188354492 C 10.15390682220459 15.34991264343262 9.951946258544922 13.6237325668335 9.553476333618164 11.95601272583008 C 9.166606903076172 10.33702278137207 8.593656539916992 8.768272399902344 7.850636959075928 7.293142318725586 C 7.120376586914062 5.84370231628418 6.226316928863525 4.485252380371094 5.193306922912598 3.255452394485474 C 4.163806915283203 2.029882431030273 2.998366832733154 0.9346323609352112 1.729406714439392 2.34802246268373e-06 L 17.01203727722168 2.34802246268373e-06 L 17.01203727722168 35.31034088134766 Z" stroke="none" fill="#000"/>
      </g>
    </g>
    <g id="Rectangle_16" data-name="Rectangle 16" transform="translate(142 110)" fill="none" stroke="#000" stroke-width="2">
      <rect width="73" height="75" rx="4" stroke="none"/>
      <rect x="1" y="1" width="71" height="73" rx="3" fill="none"/>
    </g>
    <line id="Line_1" data-name="Line 1" y2="69" transform="translate(225.5 113)" fill="none" stroke="#d82466" stroke-width="2"/>
    <text id="ODETAYO_ADEMOLA" data-name="ODETAYO
ADEMOLA" transform="translate(233 143)" fill="#434040" font-size="30" font-family="Aileron-Thin, Aileron" font-weight="200"><tspan x="0" y="0">ODETAYO</tspan><tspan x="0" y="32">ADEMOLA</tspan></text>
    <text id="SENIOR_UX_DESIGNER" data-name="SENIOR UX DESIGNER" transform="translate(140.672 215)" fill="#d82466" font-size="22" font-family="Aileron-Regular, Aileron" letter-spacing="0.032em"><tspan x="0" y="0">SENIOR UX DESIGNER</tspan></text>
  </g>
</svg>
