<svg xmlns="http://www.w3.org/2000/svg" width="198.745" height="25.743" viewBox="0 0 198.745 25.743">
  <g id="Group_23" data-name="Group 23" transform="translate(-960 -1829)">
    <text id="Download_resume" data-name="Download resume" transform="translate(960 1847)" fill="#d82466" font-size="18" font-family="Aileron-Bold, Aileron" font-weight="700"><tspan x="0" y="0">Download resume</tspan></text>
    <g id="noun_Download_4370858" transform="translate(1124 1817.891)">
      <path id="Path_8" data-name="Path 8" d="M30.522,20.814h-.3a7.507,7.507,0,1,0-14.356-4.393,5.3,5.3,0,0,0-6.418,4.393H9.223a4.223,4.223,0,1,0,0,8.446h6.171a1.047,1.047,0,0,0,0-2.095H9.223a2.128,2.128,0,1,1,0-4.256h1.228A1.048,1.048,0,0,0,11.5,21.8c0-.069-.007-.137-.007-.2a3.213,3.213,0,0,1,3.21-3.21,3.171,3.171,0,0,1,1.469.356,1.047,1.047,0,0,0,1.52-.807,5.411,5.411,0,1,1,10.033,3.395,1.048,1.048,0,0,0,.9,1.581h1.9a2.128,2.128,0,1,1,0,4.256H24.351a1.047,1.047,0,1,0,0,2.095h6.171a4.223,4.223,0,1,0,0-8.446Z" fill="#d82466"/>
      <path id="Path_9" data-name="Path 9" d="M42.544,51.56l-2.691,2.69V43.485a1.047,1.047,0,1,0-2.095,0V54.25l-2.691-2.69a1.047,1.047,0,1,0-1.481,1.481l4.478,4.479a1.048,1.048,0,0,0,1.481,0l4.478-4.479a1.047,1.047,0,1,0-1.481-1.481Z" transform="translate(-18.934 -20.975)" fill="#d82466"/>
    </g>
  </g>
</svg>
